<?xml version="1.0" encoding="UTF-8" standalone="no"?>
<!DOCTYPE svg PUBLIC "-//W3C//DTD SVG 1.1//EN"
 "http://www.w3.org/Graphics/SVG/1.1/DTD/svg11.dtd">
<!-- Generated by graphviz version 2.43.0 (0)
 -->
<!-- Title: nodes Pages: 1 -->
<svg width="777pt" height="465pt"
 viewBox="0.00 0.00 777.00 465.00" xmlns="http://www.w3.org/2000/svg" xmlns:xlink="http://www.w3.org/1999/xlink">
<g id="graph0" class="graph" transform="scale(1 1) rotate(0) translate(4 461)">
<title>nodes</title>
<polygon fill="white" stroke="transparent" points="-4,4 -4,-461 773,-461 773,4 -4,4"/>
<g id="clust1" class="cluster">
<title>cluster_planning</title>
<polygon fill="none" stroke="black" stroke-dasharray="5,2" points="8,-166 8,-305 635,-305 635,-166 8,-166"/>
</g>
<!-- lanelet2_global_planner -->
<g id="node1" class="node">
<title>lanelet2_global_planner</title>
<ellipse fill="none" stroke="black" cx="515" cy="-366" rx="120.78" ry="18"/>
<text text-anchor="middle" x="515" y="-362.3" font-family="Times,serif" font-size="14.00">lanelet2_global_planner</text>
</g>
<!-- behavior_planner -->
<g id="node4" class="node">
<title>behavior_planner</title>
<ellipse fill="none" stroke="black" cx="366" cy="-279" rx="90.98" ry="18"/>
<text text-anchor="middle" x="366" y="-275.3" font-family="Times,serif" font-size="14.00">behavior_planner</text>
</g>
<!-- lanelet2_global_planner&#45;&gt;behavior_planner -->
<g id="edge6" class="edge">
<title>lanelet2_global_planner&#45;&gt;behavior_planner</title>
<path fill="none" stroke="black" d="M485.92,-348.41C462.28,-334.93 428.78,-315.81 403.19,-301.22"/>
<polygon fill="black" stroke="black" points="404.92,-298.18 394.5,-296.26 401.45,-304.26 404.92,-298.18"/>
<text text-anchor="middle" x="490.5" y="-318.8" font-family="Times,serif" font-size="14.00">global_path</text>
</g>
<!-- pure_pursuit -->
<g id="node2" class="node">
<title>pure_pursuit</title>
<ellipse fill="none" stroke="black" cx="147" cy="-105" rx="70.39" ry="18"/>
<text text-anchor="middle" x="147" y="-101.3" font-family="Times,serif" font-size="14.00">pure_pursuit</text>
</g>
<!-- simple_planning_simulator -->
<g id="node3" class="node">
<title>simple_planning_simulator</title>
<ellipse fill="none" stroke="black" cx="147" cy="-18" rx="135.38" ry="18"/>
<text text-anchor="middle" x="147" y="-14.3" font-family="Times,serif" font-size="14.00">simple_planning_simulator</text>
</g>
<!-- pure_pursuit&#45;&gt;simple_planning_simulator -->
<g id="edge8" class="edge">
<title>pure_pursuit&#45;&gt;simple_planning_simulator</title>
<path fill="none" stroke="black" d="M147,-86.8C147,-75.16 147,-59.55 147,-46.24"/>
<polygon fill="black" stroke="black" points="150.5,-46.18 147,-36.18 143.5,-46.18 150.5,-46.18"/>
<text text-anchor="middle" x="182" y="-57.8" font-family="Times,serif" font-size="14.00">command</text>
</g>
<!-- simple_planning_simulator&#45;&gt;lanelet2_global_planner -->
<g id="edge9" class="edge">
<title>simple_planning_simulator&#45;&gt;lanelet2_global_planner</title>
<path fill="none" stroke="black" d="M236.6,-31.49C369.01,-52.04 606.56,-97.65 655,-166 690.96,-216.74 685.52,-263.74 639,-305 621.36,-320.65 443.28,-297.94 427,-315 414.6,-328 426.15,-338.6 444.49,-346.63"/>
<polygon fill="black" stroke="black" points="443.38,-349.95 453.97,-350.37 445.95,-343.44 443.38,-349.95"/>
<text text-anchor="middle" x="722" y="-188.3" font-family="Times,serif" font-size="14.00">current_pose</text>
</g>
<!-- simple_planning_simulator&#45;&gt;pure_pursuit -->
<g id="edge11" class="edge">
<title>simple_planning_simulator&#45;&gt;pure_pursuit</title>
<path fill="none" stroke="black" d="M197.13,-34.83C214.22,-43.1 227,-54.53 218,-69 213.71,-75.89 207.63,-81.47 200.8,-85.97"/>
<polygon fill="black" stroke="black" points="198.76,-83.1 191.83,-91.11 202.24,-89.17 198.76,-83.1"/>
<text text-anchor="middle" x="267" y="-57.8" font-family="Times,serif" font-size="14.00">current_pose</text>
</g>
<!-- simple_planning_simulator&#45;&gt;behavior_planner -->
<g id="edge10" class="edge">
<title>simple_planning_simulator&#45;&gt;behavior_planner</title>
<path fill="none" stroke="black" d="M245.94,-30.3C277.27,-35.74 306.71,-43.44 318,-54 341.23,-75.73 315.88,-99.22 337,-123 362.82,-152.06 380.03,-147.65 418,-156 441.68,-161.21 619.25,-148.47 636,-166 660.58,-191.74 644.13,-224.05 614,-243 589.08,-258.68 521.13,-267.56 462.65,-272.45"/>
<polygon fill="black" stroke="black" points="462.29,-268.97 452.6,-273.26 462.85,-275.95 462.29,-268.97"/>
<text text-anchor="middle" x="465" y="-144.8" font-family="Times,serif" font-size="14.00">current_pose</text>
</g>
<!-- lane_planner -->
<g id="node5" class="node">
<title>lane_planner</title>
<ellipse fill="none" stroke="black" cx="366" cy="-192" rx="70.39" ry="18"/>
<text text-anchor="middle" x="366" y="-188.3" font-family="Times,serif" font-size="14.00">lane_planner</text>
</g>
<!-- behavior_planner&#45;&gt;lane_planner -->
<g id="edge3" class="edge">
<title>behavior_planner&#45;&gt;lane_planner</title>
<path fill="none" stroke="black" d="M315.88,-263.76C306.42,-258.74 297.7,-252.01 292,-243 283.18,-229.07 294.45,-218.09 310.64,-210.01"/>
<polygon fill="black" stroke="black" points="312.34,-213.08 320.05,-205.82 309.49,-206.69 312.34,-213.08"/>
<text text-anchor="middle" x="327" y="-231.8" font-family="Times,serif" font-size="14.00">start/goal</text>
</g>
<!-- parking_planner -->
<g id="node6" class="node">
<title>parking_planner</title>
<ellipse fill="none" stroke="black" cx="541" cy="-192" rx="86.38" ry="18"/>
<text text-anchor="middle" x="541" y="-188.3" font-family="Times,serif" font-size="14.00">parking_planner</text>
</g>
<!-- behavior_planner&#45;&gt;parking_planner -->
<g id="edge4" class="edge">
<title>behavior_planner&#45;&gt;parking_planner</title>
<path fill="none" stroke="black" d="M401.97,-262.38C413.75,-256.79 426.7,-250.09 438,-243 447.11,-237.28 447.73,-233.45 457,-228 467.11,-222.05 478.42,-216.61 489.39,-211.88"/>
<polygon fill="black" stroke="black" points="491.02,-215 498.9,-207.92 488.32,-208.54 491.02,-215"/>
<text text-anchor="middle" x="492" y="-231.8" font-family="Times,serif" font-size="14.00">start/goal</text>
</g>
<!-- object_collision_estimator -->
<g id="node7" class="node">
<title>object_collision_estimator</title>
<ellipse fill="none" stroke="black" cx="147" cy="-192" rx="130.78" ry="18"/>
<text text-anchor="middle" x="147" y="-188.3" font-family="Times,serif" font-size="14.00">object_collision_estimator</text>
</g>
<!-- behavior_planner&#45;&gt;object_collision_estimator -->
<g id="edge5" class="edge">
<title>behavior_planner&#45;&gt;object_collision_estimator</title>
<path fill="none" stroke="black" d="M293.86,-268C267.59,-262.7 238.19,-254.75 213,-243 198.64,-236.3 184.41,-226.1 172.86,-216.65"/>
<polygon fill="black" stroke="black" points="174.85,-213.76 164.96,-209.97 170.33,-219.1 174.85,-213.76"/>
<text text-anchor="middle" x="248.5" y="-231.8" font-family="Times,serif" font-size="14.00">trajectory</text>
</g>
<!-- lane_planner&#45;&gt;behavior_planner -->
<g id="edge1" class="edge">
<title>lane_planner&#45;&gt;behavior_planner</title>
<path fill="none" stroke="black" d="M366,-210.18C366,-221.81 366,-237.42 366,-250.73"/>
<polygon fill="black" stroke="black" points="362.5,-250.8 366,-260.8 369.5,-250.8 362.5,-250.8"/>
<text text-anchor="middle" x="401.5" y="-231.8" font-family="Times,serif" font-size="14.00">trajectory</text>
</g>
<!-- parking_planner&#45;&gt;behavior_planner -->
<g id="edge2" class="edge">
<title>parking_planner&#45;&gt;behavior_planner</title>
<path fill="none" stroke="black" d="M542.05,-210.02C541.76,-220.86 539.46,-234.44 531,-243 519.62,-254.51 487.29,-262.61 454.24,-268.09"/>
<polygon fill="black" stroke="black" points="453.31,-264.7 443.97,-269.71 454.4,-271.61 453.31,-264.7"/>
<text text-anchor="middle" x="574.5" y="-231.8" font-family="Times,serif" font-size="14.00">trajectory</text>
</g>
<!-- object_collision_estimator&#45;&gt;pure_pursuit -->
<g id="edge7" class="edge">
<title>object_collision_estimator&#45;&gt;pure_pursuit</title>
<path fill="none" stroke="black" d="M147,-173.8C147,-162.16 147,-146.55 147,-133.24"/>
<polygon fill="black" stroke="black" points="150.5,-133.18 147,-123.18 143.5,-133.18 150.5,-133.18"/>
<text text-anchor="middle" x="182.5" y="-144.8" font-family="Times,serif" font-size="14.00">trajectory</text>
</g>
<!-- map_file -->
<g id="node8" class="node">
<title>map_file</title>
<polygon fill="gray" stroke="gray" points="459.5,-457 382.5,-457 382.5,-421 459.5,-421 459.5,-457"/>
<text text-anchor="middle" x="421" y="-435.3" font-family="Times,serif" font-size="14.00">map_file</text>
</g>
<!-- map_file&#45;&gt;lanelet2_global_planner -->
<g id="edge12" class="edge">
<title>map_file&#45;&gt;lanelet2_global_planner</title>
<path fill="none" stroke="blue" d="M443.75,-420.81C456.08,-411.5 471.48,-399.87 484.8,-389.81"/>
<polygon fill="blue" stroke="blue" points="486.91,-392.6 492.78,-383.78 482.69,-387.02 486.91,-392.6"/>
</g>
<!-- map_file&#45;&gt;behavior_planner -->
<g id="edge13" class="edge">
<title>map_file&#45;&gt;behavior_planner</title>
<path fill="none" stroke="blue" d="M406.7,-420.55C399.13,-410.45 390.32,-397.16 385,-384 374.93,-359.11 370.17,-328.71 367.93,-307.22"/>
<polygon fill="blue" stroke="blue" points="371.41,-306.79 367,-297.16 364.44,-307.44 371.41,-306.79"/>
</g>
<!-- goal_pose -->
<g id="node9" class="node">
<title>goal_pose</title>
<polygon fill="gray" stroke="gray" points="564,-457 478,-457 478,-421 564,-421 564,-457"/>
<text text-anchor="middle" x="521" y="-435.3" font-family="Times,serif" font-size="14.00">goal_pose</text>
</g>
<!-- goal_pose&#45;&gt;lanelet2_global_planner -->
<g id="edge14" class="edge">
<title>goal_pose&#45;&gt;lanelet2_global_planner</title>
<path fill="none" stroke="blue" d="M519.55,-420.81C518.87,-412.79 518.05,-403.05 517.29,-394.07"/>
<polygon fill="blue" stroke="blue" points="520.77,-393.7 516.44,-384.03 513.79,-394.29 520.77,-393.7"/>
</g>
<!-- v2x_traffic_light -->
<g id="node10" class="node">
<title>v2x_traffic_light</title>
<polygon fill="gray" stroke="gray" points="364,-457 232,-457 232,-421 364,-421 364,-457"/>
<text text-anchor="middle" x="298" y="-435.3" font-family="Times,serif" font-size="14.00">v2x_traffic_light</text>
</g>
<!-- v2x_traffic_light&#45;&gt;behavior_planner -->
<g id="edge15" class="edge">
<title>v2x_traffic_light&#45;&gt;behavior_planner</title>
<path fill="none" stroke="blue" d="M296.21,-420.64C294.49,-395.41 294.61,-348.01 315,-315 317.93,-310.26 321.76,-306 326.02,-302.23"/>
<polygon fill="blue" stroke="blue" points="328.31,-304.88 334.02,-295.96 323.99,-299.37 328.31,-304.88"/>
</g>
<!-- v2x_objects -->
<g id="node11" class="node">
<title>v2x_objects</title>
<polygon fill="gray" stroke="gray" points="196,-457 96,-457 96,-421 196,-421 196,-457"/>
<text text-anchor="middle" x="146" y="-435.3" font-family="Times,serif" font-size="14.00">v2x_objects</text>
</g>
<!-- v2x_objects&#45;&gt;object_collision_estimator -->
<g id="edge16" class="edge">
<title>v2x_objects&#45;&gt;object_collision_estimator</title>
<path fill="none" stroke="blue" d="M146.07,-420.77C146.24,-378.86 146.68,-271.31 146.89,-220.44"/>
<polygon fill="blue" stroke="blue" points="150.39,-220.22 146.93,-210.21 143.39,-220.19 150.39,-220.22"/>
</g>
</g>
</svg>
